<svg xmlns="http://www.w3.org/2000/svg" xmlns:xlink="http://www.w3.org/1999/xlink" width="512px" height="512px" viewBox="0 0 512 512"><g id="surface1"><path style=" stroke:none;fill-rule:nonzero;fill:rgb(6.666667%,50.980395%,73.333335%);fill-opacity:1;" d="M 280.445312 321.25 C 267.515625 326.542969 254.589844 329.1875 241.664062 329.1875 C 228.734375 329.1875 217.433594 327.691406 207.765625 324.714844 C 198.089844 321.730469 189.851562 317.632812 183.027344 312.410156 C 168.984375 301.679688 161.957031 287.734375 161.957031 270.589844 C 161.957031 253.445312 170.101562 238.085938 186.390625 226.304688 C 202.777344 214.382812 223.753906 208.414062 249.300781 208.414062 C 257.136719 208.414062 264.824219 209.160156 272.359375 210.648438 L 272.359375 160.890625 L 309.773438 160.890625 L 309.773438 280.429688 C 309.773438 290.34375 310.410156 296.828125 311.683594 299.886719 C 312.957031 302.941406 314.375 305.179688 315.957031 306.59375 C 317.53125 308.011719 319.542969 309.355469 321.988281 310.617188 L 293.277344 329.179688 C 287.976562 327.097656 283.703125 324.445312 280.453125 321.242188 Z M 248.835938 303.472656 C 257.382812 303.472656 265.21875 302.28125 272.351562 299.890625 L 272.351562 237.941406 C 265.21875 235.777344 257.488281 234.695312 249.136719 234.695312 C 240.785156 234.695312 233.636719 235.515625 227.683594 237.15625 C 221.734375 238.796875 216.617188 241.070312 212.339844 243.976562 C 203.378906 250.089844 198.90625 258.027344 198.90625 267.792969 C 198.90625 278.453125 202.976562 286.957031 211.121094 293.289062 C 219.875 300.074219 232.441406 303.464844 248.835938 303.464844 Z M 248.835938 303.472656 "></path><path style="fill-rule:nonzero;fill:rgb(6.666667%,50.980395%,73.333335%);fill-opacity:1;stroke-width:4;stroke-linecap:butt;stroke-linejoin:miter;stroke:rgb(100%,100%,100%);stroke-opacity:1;stroke-miterlimit:10;" d="M 405.898758 544.00227 C 405.898758 526.643014 391.8288 512.567942 374.470705 512.567942 C 357.11261 512.567942 343.03811 526.643014 343.03811 544.00227 C 343.03811 561.355098 357.11261 575.43017 374.470705 575.43017 C 391.8288 575.43017 405.898758 561.355098 405.898758 544.00227 Z M 405.898758 544.00227 " transform="matrix(0.860099,0,0,0.60779,0,0.153851)"></path></g></svg>